<?xml version="1.0" encoding="utf-8"?>
<!-- Generator: Adobe Illustrator 26.0.0, SVG Export Plug-In . SVG Version: 6.00 Build 0)  -->
<svg version="1.1" id="Layer_1" xmlns="http://www.w3.org/2000/svg" xmlns:xlink="http://www.w3.org/1999/xlink" x="0px" y="0px"
	 viewBox="0 0 595.3 841.9" style="enable-background:new 0 0 595.3 841.9;" xml:space="preserve">
<style type="text/css">
	.st0{fill:#11163F;}
	.st1{fill:#12A5AD;}
</style>
<g>
	<path class="st0" d="M351,449.9c-58-30.8-115.9-61.6-173.9-92.3c-23.3-12.4-32.1-41.3-19.7-64.6l0,0c11.8-23.5,40.4-32.6,63.5-20.3
		l70.2,37.4c17.2,9.2,32,22.5,42.5,39c7.6,12,10.9,22.1,12.5,28c3.3,12.7,4.4,28.2,4.9,34.7C352.1,427.4,351.7,440.5,351,449.9z"/>
	<path class="st1" d="M241.1,390.5c58.2,30.3,116.4,60.7,174.6,91c23.4,12.2,32.4,41.1,20.2,64.5l0,0
		c-11.6,23.6-40.1,32.9-63.4,20.8L302,529.9c-17.3-9-32.2-22.2-42.8-38.6c-7.7-11.9-11.1-22-12.7-28c-3.4-12.7-4.6-28.2-5.2-34.7
		C240.1,413,240.4,399.9,241.1,390.5z"/>
	<circle class="st1" cx="397.6" cy="315.7" r="48.5"/>
	<circle class="st0" cx="197.7" cy="526.2" r="48.5"/>
</g>
</svg>
